<svg xmlns="http://www.w3.org/2000/svg" viewBox="225 206 966 848" shape-rendering="crispEdges" role="img" aria-labelledby="title"><title id="title">奶屁龙开挖抬镐</title><g id="face-underlay" fill="#91dacd"><path d="M357 549h72v74h-72zM603 559h76v73h-76zM459 593h110v75H459z"/></g><g id="expression"><path fill="#15212b" d="M361 575h16v-16h32v16h16v16h-16v-16h-32v16h-16z"/><path fill="#15212b" d="M606 586h16v-16h32v16h16v16h-16v-16h-32v16h-16z"/><path fill="#15212b" d="M463 598h18v8h64v-10h19v22h-17v22h-17v21h-33v-19h-17v-23h-17z"/><rect x="498" y="622" width="33" height="25" fill="#fb9b92"/></g><rect x="281" y="682" width="24" height="24" fill="#15212b"/><rect x="285" y="686" width="16" height="16" fill="#d6a866"/><rect x="297" y="706" width="24" height="24" fill="#15212b"/><rect x="301" y="710" width="16" height="16" fill="#d6a866"/><rect x="313" y="730" width="24" height="24" fill="#15212b"/><rect x="317" y="734" width="16" height="16" fill="#d6a866"/><rect x="329" y="754" width="24" height="24" fill="#15212b"/><rect x="333" y="758" width="16" height="16" fill="#d6a866"/><rect x="345" y="778" width="24" height="24" fill="#15212b"/><rect x="349" y="782" width="16" height="16" fill="#d6a866"/><rect x="361" y="802" width="24" height="24" fill="#15212b"/><rect x="365" y="806" width="16" height="16" fill="#d6a866"/><path fill="#15212b" d="M241 650h76v16h16v20h-28v-8h-52v8h-28v-20h16z"/><path fill="#246fe2" d="M245 654h68v12h16v8h-24v-8h-52v8h-24v-8h16z"/></svg>
